<?xml version="1.0" encoding="UTF-8" standalone="no"?>
<svg
   xmlns:dc="http://purl.org/dc/elements/1.1/"
   xmlns:cc="http://creativecommons.org/ns#"
   xmlns:rdf="http://www.w3.org/1999/02/22-rdf-syntax-ns#"
   xmlns:svg="http://www.w3.org/2000/svg"
   xmlns="http://www.w3.org/2000/svg"
   viewBox="0 0 1280 720"
   height="720"
   width="1280"
   xml:space="preserve"
   id="svg2"
   version="1.1"><metadata
     id="metadata8"><rdf:RDF><cc:Work
         rdf:about=""><dc:format>image/svg+xml</dc:format><dc:type
           rdf:resource="http://purl.org/dc/dcmitype/StillImage" /></cc:Work></rdf:RDF></metadata><defs
     id="defs6"><clipPath
       id="clipPath18"
       clipPathUnits="userSpaceOnUse"><path
         style="clip-rule:evenodd"
         id="path16"
         d="M 0,1.2207e-4 H 960 V 540.00012 H 0 Z" /></clipPath><clipPath
       id="clipPath32"
       clipPathUnits="userSpaceOnUse"><path
         style="clip-rule:evenodd"
         id="path30"
         d="M 1.4305e-5,0 H 960.00001 V 540 H 1.4305e-5 Z" /></clipPath><clipPath
       id="clipPath48"
       clipPathUnits="userSpaceOnUse"><path
         style="clip-rule:evenodd"
         id="path46"
         d="M 1.4305e-5,0 H 960.00001 V 540 H 1.4305e-5 Z" /></clipPath><clipPath
       id="clipPath64"
       clipPathUnits="userSpaceOnUse"><path
         style="clip-rule:evenodd"
         id="path62"
         d="M 1.4305e-5,0 H 960.00001 V 540 H 1.4305e-5 Z" /></clipPath><clipPath
       id="clipPath80"
       clipPathUnits="userSpaceOnUse"><path
         style="clip-rule:evenodd"
         id="path78"
         d="M 1.4305e-5,0 H 960.00001 V 540 H 1.4305e-5 Z" /></clipPath><clipPath
       id="clipPath96"
       clipPathUnits="userSpaceOnUse"><path
         style="clip-rule:evenodd"
         id="path94"
         d="M 1.4305e-5,0 H 960.00001 V 540 H 1.4305e-5 Z" /></clipPath><clipPath
       id="clipPath130"
       clipPathUnits="userSpaceOnUse"><path
         style="clip-rule:evenodd"
         id="path128"
         d="M 0,1.2207e-4 H 960 V 540.00012 H 0 Z" /></clipPath></defs><g
     transform="matrix(1.3333333,0,0,-1.3333333,0,720)"
     id="g10"><g
       id="g12"><g
         clip-path="url(#clipPath18)"
         id="g14"><path
           id="path20"
           style="fill:#ffffff;fill-opacity:1;fill-rule:evenodd;stroke:none"
           d="M 0,6.1035e-5 H 960 V 540.00006 H 0 Z" /></g></g><path
       id="path22"
       style="fill:#000000;fill-opacity:1;fill-rule:evenodd;stroke:none"
       d="m 391.2,301.08 c 0,6.56 5.32,11.88 11.88,11.88 6.56,0 11.88,-5.32 11.88,-11.88 0,-6.56 -5.32,-11.88 -11.88,-11.88 -6.56,0 -11.88,5.32 -11.88,11.88 z" /><path
       id="path24"
       style="fill:none;stroke:#000000;stroke-width:0.95999998;stroke-linecap:butt;stroke-linejoin:miter;stroke-miterlimit:10;stroke-dasharray:none;stroke-opacity:1"
       d="m 391.2,301.08 c 0,6.56 5.32,11.88 11.88,11.88 6.56,0 11.88,-5.32 11.88,-11.88 0,-6.56 -5.32,-11.88 -11.88,-11.88 -6.56,0 -11.88,5.32 -11.88,11.88 z" /><g
       id="g26"><g
         clip-path="url(#clipPath32)"
         id="g28"><text
           id="text36"
           style="font-variant:normal;font-weight:normal;font-size:18px;font-family:Calibri;-inkscape-font-specification:Calibri;writing-mode:lr-tb;fill:#ffffff;fill-opacity:1;fill-rule:nonzero;stroke:none"
           transform="matrix(1,0,0,-1,398.54,295.01)"><tspan
             id="tspan34"
             y="0"
             x="0">2</tspan></text>
</g></g><path
       id="path38"
       style="fill:#000000;fill-opacity:1;fill-rule:evenodd;stroke:none"
       d="m 429,218.64 c 0,6.56 5.32,11.88 11.88,11.88 6.56,0 11.88,-5.32 11.88,-11.88 0,-6.56 -5.32,-11.88 -11.88,-11.88 -6.56,0 -11.88,5.32 -11.88,11.88 z" /><path
       id="path40"
       style="fill:none;stroke:#000000;stroke-width:0.95999998;stroke-linecap:butt;stroke-linejoin:miter;stroke-miterlimit:10;stroke-dasharray:none;stroke-opacity:1"
       d="m 429,218.64 c 0,6.56 5.32,11.88 11.88,11.88 6.56,0 11.88,-5.32 11.88,-11.88 0,-6.56 -5.32,-11.88 -11.88,-11.88 -6.56,0 -11.88,5.32 -11.88,11.88 z" /><g
       id="g42"><g
         clip-path="url(#clipPath48)"
         id="g44"><text
           id="text52"
           style="font-variant:normal;font-weight:normal;font-size:18px;font-family:Calibri;-inkscape-font-specification:Calibri;writing-mode:lr-tb;fill:#ffffff;fill-opacity:1;fill-rule:nonzero;stroke:none"
           transform="matrix(1,0,0,-1,436.39,212.52)"><tspan
             id="tspan50"
             y="0"
             x="0">4</tspan></text>
</g></g><path
       id="path54"
       style="fill:#000000;fill-opacity:1;fill-rule:evenodd;stroke:none"
       d="m 474.12,372.84 c 0,6.56 5.29,11.88 11.82,11.88 6.53,0 11.82,-5.32 11.82,-11.88 0,-6.56 -5.29,-11.88 -11.82,-11.88 -6.53,0 -11.82,5.32 -11.82,11.88 z" /><path
       id="path56"
       style="fill:none;stroke:#000000;stroke-width:0.95999998;stroke-linecap:butt;stroke-linejoin:miter;stroke-miterlimit:10;stroke-dasharray:none;stroke-opacity:1"
       d="m 474.12,372.84 c 0,6.56 5.29,11.88 11.82,11.88 6.53,0 11.82,-5.32 11.82,-11.88 0,-6.56 -5.29,-11.88 -11.82,-11.88 -6.53,0 -11.82,5.32 -11.82,11.88 z" /><g
       id="g58"><g
         clip-path="url(#clipPath64)"
         id="g60"><text
           id="text68"
           style="font-variant:normal;font-weight:normal;font-size:18px;font-family:Calibri;-inkscape-font-specification:Calibri;writing-mode:lr-tb;fill:#ffffff;fill-opacity:1;fill-rule:nonzero;stroke:none"
           transform="matrix(1,0,0,-1,481.44,366.77)"><tspan
             id="tspan66"
             y="0"
             x="0">1</tspan></text>
</g></g><path
       id="path70"
       style="fill:#000000;fill-opacity:1;fill-rule:evenodd;stroke:none"
       d="m 562.92,301.08 c 0,6.56 5.32,11.88 11.88,11.88 6.56,0 11.88,-5.32 11.88,-11.88 0,-6.56 -5.32,-11.88 -11.88,-11.88 -6.56,0 -11.88,5.32 -11.88,11.88 z" /><path
       id="path72"
       style="fill:none;stroke:#000000;stroke-width:0.95999998;stroke-linecap:butt;stroke-linejoin:miter;stroke-miterlimit:10;stroke-dasharray:none;stroke-opacity:1"
       d="m 562.92,301.08 c 0,6.56 5.32,11.88 11.88,11.88 6.56,0 11.88,-5.32 11.88,-11.88 0,-6.56 -5.32,-11.88 -11.88,-11.88 -6.56,0 -11.88,5.32 -11.88,11.88 z" /><g
       id="g74"><g
         clip-path="url(#clipPath80)"
         id="g76"><text
           id="text84"
           style="font-variant:normal;font-weight:normal;font-size:18px;font-family:Calibri;-inkscape-font-specification:Calibri;writing-mode:lr-tb;fill:#ffffff;fill-opacity:1;fill-rule:nonzero;stroke:none"
           transform="matrix(1,0,0,-1,570.26,295.01)"><tspan
             id="tspan82"
             y="0"
             x="0">3</tspan></text>
</g></g><path
       id="path86"
       style="fill:#000000;fill-opacity:1;fill-rule:evenodd;stroke:none"
       d="m 526.68,218.64 c 0,6.56 5.32,11.88 11.88,11.88 6.56,0 11.88,-5.32 11.88,-11.88 0,-6.56 -5.32,-11.88 -11.88,-11.88 -6.56,0 -11.88,5.32 -11.88,11.88 z" /><path
       id="path88"
       style="fill:none;stroke:#000000;stroke-width:0.95999998;stroke-linecap:butt;stroke-linejoin:miter;stroke-miterlimit:10;stroke-dasharray:none;stroke-opacity:1"
       d="m 526.68,218.64 c 0,6.56 5.32,11.88 11.88,11.88 6.56,0 11.88,-5.32 11.88,-11.88 0,-6.56 -5.32,-11.88 -11.88,-11.88 -6.56,0 -11.88,5.32 -11.88,11.88 z" /><g
       id="g90"><g
         clip-path="url(#clipPath96)"
         id="g92"><text
           id="text100"
           style="font-variant:normal;font-weight:normal;font-size:18px;font-family:Calibri;-inkscape-font-specification:Calibri;writing-mode:lr-tb;fill:#ffffff;fill-opacity:1;fill-rule:nonzero;stroke:none"
           transform="matrix(1,0,0,-1,534.02,212.52)"><tspan
             id="tspan98"
             y="0"
             x="0">5</tspan></text>
</g></g><path
       id="path102"
       style="fill:none;stroke:#4472c4;stroke-width:0.47999999;stroke-linecap:butt;stroke-linejoin:miter;stroke-miterlimit:10;stroke-dasharray:none;stroke-opacity:1"
       d="m 485.88,360.96 52.58,-59.88" /><path
       id="path104"
       style="fill:none;stroke:#4472c4;stroke-width:0.47999999;stroke-linecap:butt;stroke-linejoin:miter;stroke-miterlimit:10;stroke-dasharray:none;stroke-opacity:1"
       d="m 538.56,301.08 h 24.37" /><path
       id="path106"
       style="fill:none;stroke:#4472c4;stroke-width:0.47999999;stroke-linecap:butt;stroke-linejoin:miter;stroke-miterlimit:10;stroke-dasharray:none;stroke-opacity:1"
       d="M 538.56,301.08 V 230.5" /><path
       id="path108"
       style="fill:none;stroke:#ed7d31;stroke-width:0.47999999;stroke-linecap:butt;stroke-linejoin:miter;stroke-miterlimit:10;stroke-dasharray:none;stroke-opacity:1"
       d="m 485.88,360.96 v -28.2" /><path
       id="path110"
       style="fill:none;stroke:#ed7d31;stroke-width:0.47999999;stroke-linecap:butt;stroke-linejoin:miter;stroke-miterlimit:10;stroke-dasharray:none;stroke-opacity:1"
       d="m 411.48,309.48 74.49,23.28" /><path
       id="path112"
       style="fill:none;stroke:#ed7d31;stroke-width:0.47999999;stroke-linecap:butt;stroke-linejoin:miter;stroke-miterlimit:10;stroke-dasharray:none;stroke-opacity:1"
       d="m 485.88,332.76 76.95,-31.68" /><path
       id="path114"
       style="fill:none;stroke:#ffc000;stroke-width:0.47999999;stroke-linecap:butt;stroke-linejoin:miter;stroke-miterlimit:10;stroke-dasharray:none;stroke-opacity:1"
       d="m 485.88,360.96 20.3,-71.75" /><path
       id="path116"
       style="fill:none;stroke:#ffc000;stroke-width:0.47999999;stroke-linecap:butt;stroke-linejoin:miter;stroke-miterlimit:10;stroke-dasharray:none;stroke-opacity:1"
       d="M 506.19,289.2 449.28,227.02" /><path
       id="path118"
       style="fill:none;stroke:#ffc000;stroke-width:0.47999999;stroke-linecap:butt;stroke-linejoin:miter;stroke-miterlimit:10;stroke-dasharray:none;stroke-opacity:1"
       d="m 506.28,289.2 56.65,11.88" /><path
       id="path120"
       style="fill:none;stroke:#a5a5a5;stroke-width:0.47999999;stroke-linecap:butt;stroke-linejoin:miter;stroke-miterlimit:10;stroke-dasharray:none;stroke-opacity:1"
       d="m 411.48,309.48 46.79,-51.36" /><path
       id="path122"
       style="fill:none;stroke:#a5a5a5;stroke-width:0.47999999;stroke-linecap:butt;stroke-linejoin:miter;stroke-miterlimit:10;stroke-dasharray:none;stroke-opacity:1"
       d="m 458.19,258.12 -8.91,-31.09" /><g
       id="g124"><g
         clip-path="url(#clipPath130)"
         id="g126"><path
           id="path132"
           style="fill:none;stroke:#4472c4;stroke-width:0.47999999;stroke-linecap:butt;stroke-linejoin:miter;stroke-miterlimit:10;stroke-dasharray:none;stroke-opacity:1"
           d="m 530.16,227.04 v 0" /></g></g><path
       id="path134"
       style="fill:none;stroke:#a5a5a5;stroke-width:0.47999999;stroke-linecap:butt;stroke-linejoin:miter;stroke-miterlimit:10;stroke-dasharray:none;stroke-opacity:1"
       d="m 538.55,230.51 -80.27,27.61" /><path
       id="path136"
       style="fill:none;stroke:#70ad47;stroke-width:0.47999999;stroke-linecap:butt;stroke-linejoin:miter;stroke-miterlimit:10;stroke-dasharray:none;stroke-opacity:1"
       d="M 486,360.96 474.12,289.21" /><path
       id="path138"
       style="fill:none;stroke:#70ad47;stroke-width:0.47999999;stroke-linecap:butt;stroke-linejoin:miter;stroke-miterlimit:10;stroke-dasharray:none;stroke-opacity:1"
       d="m 411.48,309.48 62.58,-20.27" /><path
       id="path140"
       style="fill:none;stroke:#70ad47;stroke-width:0.47999999;stroke-linecap:butt;stroke-linejoin:miter;stroke-miterlimit:10;stroke-dasharray:none;stroke-opacity:1"
       d="m 474,289.2 64.54,-58.7" /></g></svg>